<mxfile host="app.diagrams.net" modified="2021-02-23T13:48:08.898Z" agent="5.0 (Windows NT 10.0; Win64; x64) AppleWebKit/537.36 (KHTML, like Gecko) Chrome/88.0.4324.182 Safari/537.36" etag="S9mckaMsS-OMBzbdZ1G9" version="14.4.2" type="github">
  <diagram id="kgpKYQtTHZ0yAKxKKP6v" name="Page-1">
    <mxGraphModel dx="830" dy="435" grid="1" gridSize="10" guides="1" tooltips="1" connect="1" arrows="1" fold="1" page="1" pageScale="1" pageWidth="827" pageHeight="1169" math="0" shadow="0">
      <root>
        <mxCell id="0" />
        <mxCell id="1" parent="0" />
        <mxCell id="3nuBFxr9cyL0pnOWT2aG-1" value="User" style="shape=umlLifeline;perimeter=lifelinePerimeter;container=1;collapsible=0;recursiveResize=0;rounded=0;shadow=0;strokeWidth=1;" parent="1" vertex="1">
          <mxGeometry x="120" y="80" width="100" height="250" as="geometry" />
        </mxCell>
        <mxCell id="3nuBFxr9cyL0pnOWT2aG-2" value="" style="points=[];perimeter=orthogonalPerimeter;rounded=0;shadow=0;strokeWidth=1;" parent="3nuBFxr9cyL0pnOWT2aG-1" vertex="1">
          <mxGeometry x="45" y="70" width="10" height="40" as="geometry" />
        </mxCell>
        <mxCell id="3nuBFxr9cyL0pnOWT2aG-5" value="Frontend" style="shape=umlLifeline;perimeter=lifelinePerimeter;container=1;collapsible=0;recursiveResize=0;rounded=0;shadow=0;strokeWidth=1;" parent="1" vertex="1">
          <mxGeometry x="300" y="80" width="100" height="250" as="geometry" />
        </mxCell>
        <mxCell id="3nuBFxr9cyL0pnOWT2aG-6" value="" style="points=[];perimeter=orthogonalPerimeter;rounded=0;shadow=0;strokeWidth=1;" parent="3nuBFxr9cyL0pnOWT2aG-5" vertex="1">
          <mxGeometry x="45" y="80" width="10" height="140" as="geometry" />
        </mxCell>
        <mxCell id="3nuBFxr9cyL0pnOWT2aG-8" value="Создание поста" style="verticalAlign=bottom;endArrow=block;entryX=0;entryY=0;shadow=0;strokeWidth=1;" parent="1" source="3nuBFxr9cyL0pnOWT2aG-2" target="3nuBFxr9cyL0pnOWT2aG-6" edge="1">
          <mxGeometry relative="1" as="geometry">
            <mxPoint x="275" y="160" as="sourcePoint" />
          </mxGeometry>
        </mxCell>
        <mxCell id="AugUilXUmpjDV1XlDeZY-2" value="База данных" style="shape=umlLifeline;perimeter=lifelinePerimeter;container=1;collapsible=0;recursiveResize=0;rounded=0;shadow=0;strokeWidth=1;" vertex="1" parent="1">
          <mxGeometry x="660" y="80" width="100" height="250" as="geometry" />
        </mxCell>
        <mxCell id="AugUilXUmpjDV1XlDeZY-3" value="" style="points=[];perimeter=orthogonalPerimeter;rounded=0;shadow=0;strokeWidth=1;" vertex="1" parent="AugUilXUmpjDV1XlDeZY-2">
          <mxGeometry x="45" y="80" width="10" height="160" as="geometry" />
        </mxCell>
        <mxCell id="AugUilXUmpjDV1XlDeZY-10" value="Добавление" style="verticalAlign=bottom;endArrow=block;shadow=0;strokeWidth=1;entryX=1.14;entryY=0.494;entryDx=0;entryDy=0;entryPerimeter=0;exitX=0.98;exitY=0.319;exitDx=0;exitDy=0;exitPerimeter=0;" edge="1" parent="AugUilXUmpjDV1XlDeZY-2" source="AugUilXUmpjDV1XlDeZY-3" target="AugUilXUmpjDV1XlDeZY-3">
          <mxGeometry relative="1" as="geometry">
            <mxPoint x="50" y="130" as="sourcePoint" />
            <mxPoint x="228.39999999999998" y="130" as="targetPoint" />
            <Array as="points">
              <mxPoint x="100" y="130" />
              <mxPoint x="100" y="160" />
            </Array>
          </mxGeometry>
        </mxCell>
        <mxCell id="AugUilXUmpjDV1XlDeZY-4" value="Post service" style="shape=umlLifeline;perimeter=lifelinePerimeter;container=1;collapsible=0;recursiveResize=0;rounded=0;shadow=0;strokeWidth=1;" vertex="1" parent="1">
          <mxGeometry x="480" y="80" width="100" height="250" as="geometry" />
        </mxCell>
        <mxCell id="AugUilXUmpjDV1XlDeZY-5" value="" style="points=[];perimeter=orthogonalPerimeter;rounded=0;shadow=0;strokeWidth=1;" vertex="1" parent="AugUilXUmpjDV1XlDeZY-4">
          <mxGeometry x="45" y="80" width="10" height="160" as="geometry" />
        </mxCell>
        <mxCell id="AugUilXUmpjDV1XlDeZY-6" value="Создать пост" style="verticalAlign=bottom;endArrow=block;shadow=0;strokeWidth=1;exitX=1.3;exitY=0.129;exitDx=0;exitDy=0;exitPerimeter=0;entryX=-0.073;entryY=0.107;entryDx=0;entryDy=0;entryPerimeter=0;" edge="1" parent="1" source="3nuBFxr9cyL0pnOWT2aG-6" target="AugUilXUmpjDV1XlDeZY-5">
          <mxGeometry x="0.01" y="11" relative="1" as="geometry">
            <mxPoint x="360" y="200.0000000000001" as="sourcePoint" />
            <mxPoint x="520" y="189" as="targetPoint" />
            <mxPoint as="offset" />
          </mxGeometry>
        </mxCell>
        <mxCell id="AugUilXUmpjDV1XlDeZY-7" value="Сохранить пост в БД" style="verticalAlign=bottom;endArrow=block;shadow=0;strokeWidth=1;exitX=1.06;exitY=0.264;exitDx=0;exitDy=0;exitPerimeter=0;entryX=-0.1;entryY=0.264;entryDx=0;entryDy=0;entryPerimeter=0;" edge="1" parent="1" source="AugUilXUmpjDV1XlDeZY-5" target="AugUilXUmpjDV1XlDeZY-3">
          <mxGeometry relative="1" as="geometry">
            <mxPoint x="530" y="220.80000000000007" as="sourcePoint" />
            <mxPoint x="704" y="210" as="targetPoint" />
          </mxGeometry>
        </mxCell>
        <mxCell id="AugUilXUmpjDV1XlDeZY-8" value="Пост добавлен" style="verticalAlign=bottom;endArrow=open;dashed=1;endSize=8;shadow=0;strokeWidth=1;entryX=1.22;entryY=0.569;entryDx=0;entryDy=0;entryPerimeter=0;" edge="1" parent="1" target="AugUilXUmpjDV1XlDeZY-5">
          <mxGeometry relative="1" as="geometry">
            <mxPoint x="540" y="261" as="targetPoint" />
            <mxPoint x="704" y="251" as="sourcePoint" />
          </mxGeometry>
        </mxCell>
        <mxCell id="AugUilXUmpjDV1XlDeZY-9" value="Редирект на страницу&#xa;созданного поста" style="verticalAlign=bottom;endArrow=open;dashed=1;endSize=8;exitX=0.02;exitY=0.654;shadow=0;strokeWidth=1;exitDx=0;exitDy=0;exitPerimeter=0;" edge="1" parent="1" source="AugUilXUmpjDV1XlDeZY-5">
          <mxGeometry relative="1" as="geometry">
            <mxPoint x="355" y="266" as="targetPoint" />
            <mxPoint x="520" y="301.9999999999998" as="sourcePoint" />
          </mxGeometry>
        </mxCell>
        <mxCell id="AugUilXUmpjDV1XlDeZY-40" value="User" style="shape=umlLifeline;perimeter=lifelinePerimeter;container=1;collapsible=0;recursiveResize=0;rounded=0;shadow=0;strokeWidth=1;" vertex="1" parent="1">
          <mxGeometry x="120" y="400" width="100" height="290" as="geometry" />
        </mxCell>
        <mxCell id="AugUilXUmpjDV1XlDeZY-41" value="" style="points=[];perimeter=orthogonalPerimeter;rounded=0;shadow=0;strokeWidth=1;" vertex="1" parent="AugUilXUmpjDV1XlDeZY-40">
          <mxGeometry x="45" y="70" width="10" height="40" as="geometry" />
        </mxCell>
        <mxCell id="AugUilXUmpjDV1XlDeZY-42" value="Frontend" style="shape=umlLifeline;perimeter=lifelinePerimeter;container=1;collapsible=0;recursiveResize=0;rounded=0;shadow=0;strokeWidth=1;" vertex="1" parent="1">
          <mxGeometry x="300" y="400" width="100" height="290" as="geometry" />
        </mxCell>
        <mxCell id="AugUilXUmpjDV1XlDeZY-43" value="" style="points=[];perimeter=orthogonalPerimeter;rounded=0;shadow=0;strokeWidth=1;" vertex="1" parent="AugUilXUmpjDV1XlDeZY-42">
          <mxGeometry x="45" y="80" width="10" height="180" as="geometry" />
        </mxCell>
        <mxCell id="AugUilXUmpjDV1XlDeZY-54" value="Отобразить &#xa;посты" style="verticalAlign=bottom;endArrow=block;shadow=0;strokeWidth=1;entryX=1.284;entryY=0.886;entryDx=0;entryDy=0;entryPerimeter=0;exitX=1.284;exitY=0.722;exitDx=0;exitDy=0;exitPerimeter=0;" edge="1" parent="AugUilXUmpjDV1XlDeZY-42" source="AugUilXUmpjDV1XlDeZY-43" target="AugUilXUmpjDV1XlDeZY-43">
          <mxGeometry x="0.01" y="11" relative="1" as="geometry">
            <mxPoint x="50" y="221.41999999999996" as="sourcePoint" />
            <mxPoint x="220.26999999999998" y="220.0000000000001" as="targetPoint" />
            <mxPoint as="offset" />
            <Array as="points">
              <mxPoint x="90" y="210" />
              <mxPoint x="90" y="240" />
            </Array>
          </mxGeometry>
        </mxCell>
        <mxCell id="AugUilXUmpjDV1XlDeZY-44" value="Ввод критериев поиска" style="verticalAlign=bottom;endArrow=block;entryX=0;entryY=0;shadow=0;strokeWidth=1;" edge="1" parent="1" source="AugUilXUmpjDV1XlDeZY-41" target="AugUilXUmpjDV1XlDeZY-43">
          <mxGeometry relative="1" as="geometry">
            <mxPoint x="275" y="480" as="sourcePoint" />
          </mxGeometry>
        </mxCell>
        <mxCell id="AugUilXUmpjDV1XlDeZY-45" value="База данных" style="shape=umlLifeline;perimeter=lifelinePerimeter;container=1;collapsible=0;recursiveResize=0;rounded=0;shadow=0;strokeWidth=1;" vertex="1" parent="1">
          <mxGeometry x="660" y="400" width="100" height="290" as="geometry" />
        </mxCell>
        <mxCell id="AugUilXUmpjDV1XlDeZY-46" value="" style="points=[];perimeter=orthogonalPerimeter;rounded=0;shadow=0;strokeWidth=1;" vertex="1" parent="AugUilXUmpjDV1XlDeZY-45">
          <mxGeometry x="45" y="80" width="10" height="160" as="geometry" />
        </mxCell>
        <mxCell id="AugUilXUmpjDV1XlDeZY-47" value="Поиск" style="verticalAlign=bottom;endArrow=block;shadow=0;strokeWidth=1;entryX=1.14;entryY=0.494;entryDx=0;entryDy=0;entryPerimeter=0;exitX=0.98;exitY=0.319;exitDx=0;exitDy=0;exitPerimeter=0;" edge="1" parent="AugUilXUmpjDV1XlDeZY-45" source="AugUilXUmpjDV1XlDeZY-46" target="AugUilXUmpjDV1XlDeZY-46">
          <mxGeometry relative="1" as="geometry">
            <mxPoint x="50" y="130" as="sourcePoint" />
            <mxPoint x="228.39999999999998" y="130" as="targetPoint" />
            <Array as="points">
              <mxPoint x="100" y="130" />
              <mxPoint x="100" y="160" />
            </Array>
          </mxGeometry>
        </mxCell>
        <mxCell id="AugUilXUmpjDV1XlDeZY-48" value="Сервис поиска" style="shape=umlLifeline;perimeter=lifelinePerimeter;container=1;collapsible=0;recursiveResize=0;rounded=0;shadow=0;strokeWidth=1;" vertex="1" parent="1">
          <mxGeometry x="480" y="400" width="100" height="290" as="geometry" />
        </mxCell>
        <mxCell id="AugUilXUmpjDV1XlDeZY-49" value="" style="points=[];perimeter=orthogonalPerimeter;rounded=0;shadow=0;strokeWidth=1;" vertex="1" parent="AugUilXUmpjDV1XlDeZY-48">
          <mxGeometry x="45" y="80" width="10" height="160" as="geometry" />
        </mxCell>
        <mxCell id="AugUilXUmpjDV1XlDeZY-50" value="Найти посты по критериям" style="verticalAlign=bottom;endArrow=block;shadow=0;strokeWidth=1;entryX=-0.073;entryY=0.107;entryDx=0;entryDy=0;entryPerimeter=0;exitX=0.9;exitY=0.103;exitDx=0;exitDy=0;exitPerimeter=0;" edge="1" parent="1" source="AugUilXUmpjDV1XlDeZY-43" target="AugUilXUmpjDV1XlDeZY-49">
          <mxGeometry x="0.01" y="11" relative="1" as="geometry">
            <mxPoint x="358" y="497" as="sourcePoint" />
            <mxPoint x="520" y="509" as="targetPoint" />
            <mxPoint as="offset" />
          </mxGeometry>
        </mxCell>
        <mxCell id="AugUilXUmpjDV1XlDeZY-51" value="Найти пост  по критериям" style="verticalAlign=bottom;endArrow=block;shadow=0;strokeWidth=1;exitX=1.06;exitY=0.264;exitDx=0;exitDy=0;exitPerimeter=0;entryX=-0.1;entryY=0.264;entryDx=0;entryDy=0;entryPerimeter=0;" edge="1" parent="1" source="AugUilXUmpjDV1XlDeZY-49" target="AugUilXUmpjDV1XlDeZY-46">
          <mxGeometry relative="1" as="geometry">
            <mxPoint x="530" y="540.8000000000001" as="sourcePoint" />
            <mxPoint x="704" y="530" as="targetPoint" />
          </mxGeometry>
        </mxCell>
        <mxCell id="AugUilXUmpjDV1XlDeZY-52" value="Список постов" style="verticalAlign=bottom;endArrow=open;dashed=1;endSize=8;shadow=0;strokeWidth=1;entryX=1.22;entryY=0.569;entryDx=0;entryDy=0;entryPerimeter=0;" edge="1" parent="1" target="AugUilXUmpjDV1XlDeZY-49">
          <mxGeometry relative="1" as="geometry">
            <mxPoint x="540" y="581" as="targetPoint" />
            <mxPoint x="704" y="571" as="sourcePoint" />
          </mxGeometry>
        </mxCell>
        <mxCell id="AugUilXUmpjDV1XlDeZY-53" value="Список постов" style="verticalAlign=bottom;endArrow=open;dashed=1;endSize=8;exitX=0.02;exitY=0.654;shadow=0;strokeWidth=1;exitDx=0;exitDy=0;exitPerimeter=0;" edge="1" parent="1" source="AugUilXUmpjDV1XlDeZY-49">
          <mxGeometry relative="1" as="geometry">
            <mxPoint x="355" y="586" as="targetPoint" />
            <mxPoint x="520" y="621.9999999999998" as="sourcePoint" />
          </mxGeometry>
        </mxCell>
      </root>
    </mxGraphModel>
  </diagram>
</mxfile>
